<svg width="24" height="24" viewBox="0 0 24 24" fill="none" xmlns="http://www.w3.org/2000/svg">
<path d="M17.4512 14.2222C17.8005 14.2223 18.0745 14.477 18.1416 14.812L18.376 15.9858C18.4898 16.5559 18.8534 16.9414 19.2471 17.0513L20.2402 17.3286C20.633 17.4381 20.7656 17.8021 20.7656 18.0474C20.7655 18.2926 20.6328 18.6567 20.2402 18.7661L19.2471 19.0425C18.8534 19.1522 18.4899 19.538 18.376 20.1079L18.1416 21.2817C18.0747 21.6169 17.8007 21.8715 17.4512 21.8716C17.1016 21.8716 16.8267 21.617 16.7598 21.2817L16.5254 20.1079C16.4114 19.5381 16.0479 19.1522 15.6543 19.0425L14.6611 18.7661C14.2687 18.6566 14.1368 18.2926 14.1367 18.0474C14.1367 17.8022 14.2686 17.4382 14.6611 17.3286L15.6543 17.0513C16.048 16.9415 16.4115 16.5559 16.5254 15.9858L16.7598 14.812C16.8268 14.4769 17.1017 14.2222 17.4512 14.2222ZM9.875 2.12842C10.321 2.12851 10.6916 2.45173 10.7861 2.92432L11.2783 5.38818C11.55 6.74828 12.4356 7.75119 13.498 8.04736L15.584 8.62842C16.0928 8.77051 16.2832 9.24864 16.2832 9.60791C16.2831 9.96718 16.0928 10.4454 15.584 10.5874L13.498 11.1685C12.4356 11.4647 11.55 12.4675 11.2783 13.8276L10.7861 16.2905C10.6917 16.7632 10.3211 17.0873 9.875 17.0874C9.42883 17.0874 9.05733 16.7633 8.96289 16.2905L8.4707 13.8276C8.19905 12.4677 7.31427 11.4648 6.25195 11.1685L4.16602 10.5874C3.65694 10.4455 3.46688 9.96725 3.4668 9.60791C3.4668 9.24856 3.65689 8.77039 4.16602 8.62842L6.25195 8.04736C7.31427 7.75108 8.19899 6.74808 8.4707 5.38818L8.96289 2.92432C9.05736 2.4516 9.42886 2.12842 9.875 2.12842Z" stroke="#D9FF42"/>
</svg>
